<?xml version="1.0" standalone="no"?>
<!DOCTYPE svg PUBLIC "-//W3C//DTD SVG 20010904//EN"
 "http://www.w3.org/TR/2001/REC-SVG-20010904/DTD/svg10.dtd">
<svg version="1.0" xmlns="http://www.w3.org/2000/svg"
 width="240.000000pt" height="240.000000pt" viewBox="0 0 240.000000 240.000000"
 preserveAspectRatio="xMidYMid meet">
<metadata>
Created by potrace 1.11, written by Peter Selinger 2001-2013
</metadata>
<g transform="translate(0.000000,240.000000) scale(0.100000,-0.100000)"
fill="#000000" stroke="none">
<path d="M1079 2396 c-2 -2 -30 -7 -62 -11 -33 -3 -98 -17 -145 -31 -329 -95
-594 -317 -750 -629 -79 -157 -113 -302 -117 -495 -4 -158 12 -273 54 -397
113 -340 350 -599 671 -735 160 -69 292 -95 469 -96 475 -2 900 274 1098 713
33 72 76 210 88 280 13 81 13 310 0 395 -80 504 -478 906 -985 993 -72 13
-311 22 -321 13z m356 -225 c342 -88 607 -334 714 -661 12 -36 24 -81 27 -100
3 -19 9 -39 12 -44 3 -5 7 -66 8 -135 3 -159 -21 -294 -73 -411 -39 -89 -50
-109 -87 -165 -118 -181 -314 -334 -511 -400 -119 -40 -210 -53 -352 -50 -146
3 -239 23 -363 75 -60 26 -182 96 -208 120 -9 9 -35 29 -56 45 -96 73 -226
258 -280 400 -65 171 -82 403 -41 575 92 397 430 712 820 767 22 3 42 7 44 9
13 12 275 -7 346 -25z"/>
<path d="M1133 1789 c-154 -28 -260 -153 -279 -328 l-6 -61 99 0 99 0 12 60
c23 108 103 161 196 129 74 -26 107 -112 72 -192 -8 -18 -35 -52 -60 -77 -120
-116 -162 -197 -165 -317 l-1 -53 100 0 c73 0 100 3 101 13 6 85 28 130 103
212 109 119 145 196 142 310 -2 90 -23 148 -75 208 -69 78 -212 118 -338 96z"/>
<path d="M1163 819 c-99 -28 -116 -167 -28 -225 78 -51 188 11 188 106 0 84
-78 142 -160 119z"/>
</g>
</svg>
